PathFileType	4	(X/Y/Z)	D:\Long Term Storage\D'Arcy Smith\Coord16.trc
DataRate	CameraRate	NumFrames	NumMarkers	Units	OrigDataRate	OrigDataStartFrame	OrigNumFrames
120.00	120.00	      134	4	mm	120.00	3634	      4844
Frame#	Time	M1			M2			M3			M4			
		X1	Y1	Z1	X2	Y2	Z2	X3	Y3	Z3	X4	Y4	Z4	

3634	30.275	1069.29102	392.95187	133.69501	1564.15784	295.40106	465.19785							
3635	30.283	1071.12598	392.08698	134.12320	1565.54358	294.28561	458.67877							
3636	30.292	1071.68494	389.86899	135.39247	1566.94214	293.18192	450.94250							
3637	30.300	1072.29114	387.11414	137.23064	1567.73535	291.88889	442.11359							
3638	30.308	1072.83740	384.02536	139.67680	1568.99182	291.24982	434.02679							
3639	30.317	1073.27209	379.99713	142.23863	1569.89563	290.30569	424.29919							
3640	30.325	1073.44043	375.52328	145.52367	1570.67212	289.64041	415.31082							
3641	30.333	1073.82141	370.81543	149.31378	1570.76392	288.94647	404.50052							
3642	30.342	1073.91833	365.33929	153.49222	1571.75366	289.05875	394.22479							
3643	30.350	1073.99670	359.47830	157.99414	1573.13098	290.00787	383.79227							
3644	30.358	1074.07117	353.12894	163.20117	1573.77393	290.94925	373.14264							
3645	30.367	1074.09583	346.33243	168.84113	1573.95752	292.29083	362.24860							
3646	30.375	1074.05750	339.16183	175.06480	1574.16211	294.34985	350.50500							
3647	30.383	1074.14099	331.68741	181.77982	1575.30457	295.30875	339.99408							
3648	30.392	1074.03809	323.94760	189.25725	1575.30725	297.92572	328.61734							
3649	30.400	1074.01892	315.78186	197.30156	1575.63013	300.65582	317.12994							
3650	30.408	1073.46338	307.39432	206.17839	1576.48792	303.65918	305.66547							
3651	30.417	1073.26343	299.13431	215.72876	1577.73450	306.58731	294.08893							
3652	30.425	1073.46802	291.01733	225.70004	1578.02759	310.98978	283.03751							
3653	30.433	1073.21606	282.64578	236.60225	1578.19482	314.45786	271.10733							
3654	30.442	1073.06628	274.64566	248.17882	1578.60620	319.14218	260.41248							
3655	30.450	1072.92273	266.62869	260.84982	1579.14490	323.95206	249.27509							
3656	30.458	1072.91931	259.49905	272.80548	1579.41504	328.77875	238.44917							
3657	30.467	1072.82263	252.21585	286.77966	1579.80530	334.26346	228.24504							
3658	30.475	1072.61133	245.62810	300.89053	1580.50061	339.42966	217.78616							
3659	30.483	1072.63220	239.52180	315.57236	1581.09326	345.27087	208.30173							
3660	30.492	1072.78284	234.20396	329.53409	1581.63159	350.99722	198.91980							
3661	30.500	1072.20984	229.72954	346.93704	1582.10864	356.97314	190.01257							
3662	30.508	1072.69238	226.27934	360.64447	1582.74231	362.91174	181.46272							
3663	30.517	1071.39441	222.58220	381.12106	1583.10999	368.85843	173.16687							
3664	30.525	1071.93420	221.19968	396.21359	1583.81592	375.07343	165.46054							
3665	30.533	1071.99585	220.57353	412.29330	1584.63037	380.74969	158.26688							
3666	30.542	1072.34094	220.81310	428.07474	1585.15918	386.46042	151.35646							
3667	30.550	1072.41333	222.01038	443.40939	1585.77490	392.20395	144.87514							
3668	30.558	1072.76550	224.16275	458.13733	1586.45642	397.79401	138.81000							
3669	30.567	1073.07202	227.27460	472.48352	1587.17419	402.92938	133.12744							
3670	30.575	1072.60120	230.39717	487.67819	1588.08386	407.90576	127.88490							
3671	30.583	1073.53845	235.38985	498.56555	1588.61877	412.75250	123.28056							
3672	30.592	1072.77124	240.88838	514.84326	1589.40918	417.06842	118.82788							
3673	30.600	1073.95007	246.48018	524.47302	1589.43030	421.34573	114.70277							
3674	30.608	1073.99292	252.18402	535.15100	1591.31970	425.05997	111.14182							
3675	30.617	1074.20007	257.91534	543.91125	1591.34888	428.79813	107.87182							
3676	30.625	1073.96326	263.36862	552.58545	1592.26550	431.75714	105.14168							
3677	30.633	1073.21704	268.35974	560.60773	1592.69055	434.49506	102.60366							
3678	30.642	1074.61157	274.07666	561.20068	1593.44043	436.49631	100.76583							
3679	30.650	1073.66821	277.99167	565.77039	1594.40625	438.27426	98.88605							
3680	30.658	1073.05786	280.94870	567.95007	1594.55920	439.47031	97.70584							
3681	30.667	1072.42139	283.17175	568.43567	1595.95435	439.97415	96.99532							
3682	30.675	1071.11548	284.03293	567.51093	1595.38293	440.38260	96.36287							
3683	30.683	1070.79907	284.28540	564.09259	1595.78540	440.26041	96.14319							
3684	30.692	1069.75403	283.39246	559.13385	1596.65967	438.93301	96.67220							
3685	30.700	1068.53186	281.82336	552.76050	1596.75171	437.55099	97.38298							
3686	30.708	1067.66040	279.29181	544.17316	1596.89490	435.76382	98.49668							
3687	30.717	1066.51074	276.59415	534.85474	1596.52588	433.44086	100.19697							
3688	30.725	1065.14331	273.51556	524.01733	1596.91797	429.95636	102.54203							
3689	30.733	1064.50403	270.29105	511.01474	1596.67590	425.91199	105.52850							
3690	30.742	1063.24756	266.13458	499.46765	1596.64075	421.77460	109.28165							
3691	30.750	1062.52075	263.26324	484.49878	1596.03699	416.20712	113.33331							
3692	30.758	1061.32300	260.86661	469.52557	1594.64233	411.13040	118.14692							
3693	30.767	1060.76013	258.80579	453.45676	1593.80420	405.51328	123.82025							
3694	30.775	1058.78943	256.42108	438.57462	1592.96143	399.09528	130.33443							
3695	30.783	1058.32166	255.76389	421.54904	1591.47241	392.19672	137.27135							
3696	30.792	1057.80273	255.81482	404.55200	1589.63599	385.26801	145.32094							
3697	30.800	1057.17065	256.50537	387.88007	1588.39343	377.58014	153.89790							
3698	30.808	1058.55652	258.76413	368.39932	1587.12769	370.04077	163.42636							
3699	30.817	1058.46802	261.15250	350.91147	1585.54028	362.11063	173.50893							
3700	30.825	1058.74316	264.34308	334.06555	1583.69373	354.29944	184.70187							
3701	30.833	1058.89771	268.20761	314.65768	1581.88794	346.28824	196.07243							
3702	30.842	1060.12012	274.00290	298.11209	1579.74109	338.54575	208.02155							
3703	30.850	1060.46790	278.92883	283.07172	1578.14294	331.36398	221.03961							
3704	30.858	1060.85583	284.82037	266.77069	1577.07080	323.35086	234.42628							
3705	30.867	1060.83813	291.30386	250.70648	1574.15808	317.32388	247.96675							
3706	30.875	1061.70886	297.81549	237.77931	1571.91858	310.93390	262.18204							
3707	30.883	1061.92749	304.87427	224.28641	1569.62329	305.48486	276.76404							
3708	30.892	1062.43738	312.35083	211.42076	1568.05920	300.02527	292.06082							
3709	30.900	1062.24792	319.79846	199.48711	1566.29810	295.18927	306.86780							
3710	30.908	1062.65601	327.77011	187.90392	1564.93787	290.84888	321.75980							
3711	30.917	1062.97375	335.72668	177.27159	1564.12244	286.82370	336.57077							
3712	30.925	1063.03040	343.84348	167.38480	1561.30127	283.52194	350.42050							
3713	30.933	1063.27869	351.88489	158.35844	1559.85925	281.41034	364.89685							
3714	30.942	1062.78284	359.78873	149.40089	1558.81287	280.14059	379.47946							
3715	30.950	1063.04041	367.53931	142.26665	1558.21851	278.34146	392.93573							
3716	30.958	1062.53259	375.12369	135.03665	1558.20032	278.39764	407.02597							
3717	30.967	1062.30627	382.36221	128.87463	1558.19666	278.18283	419.71719							
3718	30.975	1061.92969	389.40222	123.36918	1558.25281	278.19385	432.36172							
3719	30.983	1061.71191	395.98212	118.92977	1558.58960	279.13571	444.60370							
3720	30.992	1060.69714	402.39102	114.46030	1559.40210	279.95074	455.95258							
3721	31.000	1060.41235	408.29086	111.33430	1558.24988	281.49487	466.25134							
3722	31.008	1059.16089	413.73288	107.82913	1559.40479	282.72971	476.91507							
3723	31.017	1058.25513	418.90781	105.28877	1559.46948	283.88208	485.00101							
3724	31.025	1057.39355	423.46924	103.35356	1561.08008	286.54065	493.23907							
3725	31.033	1056.73975	427.96317	101.81289	1562.26514	288.24155	500.50995							
3726	31.042	1055.24036	431.73795	100.25881	1563.94531	290.14581	506.52673							
3727	31.050	1053.89795	434.87885	99.42559	1565.06116	291.83542	511.95358							
3728	31.058	1052.55762	437.63467	98.94102	1566.79602	293.63089	516.47546							
3729	31.067	1051.31567	439.87149	98.80674	1567.93237	294.61441	519.83154							
3730	31.075	1050.60388	441.54459	99.31509	1569.42578	295.62250	522.58417							
3731	31.083	1048.73901	443.02899	99.18616	1570.98682	296.42715	524.10480							
3732	31.092	1047.51624	443.97165	99.84945	1572.89929	296.63641	525.22510							
3733	31.100	1046.27869	444.42926	100.72536	1573.73474	297.16803	525.66699							
3734	31.108	1045.05310	444.46268	101.75854	1574.85242	297.04279	524.67487							
3735	31.117	1043.72974	444.10254	103.12503	1576.08459	296.41473	521.92780							
3736	31.125	1042.66980	443.29788	104.69801	1577.03235	295.77203	519.21301							
3737	31.133	1041.66577	442.03397	106.41881	1577.78174	294.76855	515.75085							
3738	31.142	1040.45422	440.14667	108.50699	1578.54749	294.11111	512.17163							
3739	31.150	1039.59497	437.89880	110.70289	1579.05469	292.32990	506.35858							
3740	31.158	1038.46204	435.29926	113.15052	1579.59424	290.47171	499.74429							
3741	31.167	1037.48474	432.10568	115.88675	1579.72595	289.03458	494.09329							
3742	31.175	1036.84827	428.63235	118.75725	1579.76282	287.31265	486.67209							
3743	31.183	1036.10596	424.60663	121.98872	1579.61511	285.23947	478.75909							
3744	31.192	1035.41943	420.24475	125.39431	1579.80444	283.86731	469.11618							
3745	31.200	1034.81677	415.52481	129.27713	1579.94189	282.49893	459.64355							
3746	31.208	1034.68054	410.21057	133.51448	1579.84131	281.13461	449.26224							
3747	31.217	1034.10913	404.86984	137.72194	1578.95361	280.56366	437.43008							
3748	31.225	1033.89880	398.95898	142.48700	1578.57471	280.46561	426.75171							
3749	31.233	1033.66516	392.76294	147.69009	1577.88599	279.69357	414.07034							
3750	31.242	1034.19849	386.05267	153.87532	1577.63623	279.73245	400.84689							
3751	31.250	1033.77332	379.32767	159.52759	1577.73376	279.81790	386.29617							
3752	31.258	1033.97803	372.15677	166.34401	1576.65942	281.01303	371.96756							
3753	31.267	1034.72266	364.48383	174.34924	1577.20190	282.38904	358.57959							
3754	31.275	1034.95593	356.83060	182.12106	1576.72644	284.19232	343.41592							
3755	31.283	1035.68201	349.24875	190.90266	1577.09155	286.97031	328.91000							
3756	31.292	1036.64294	341.62341	200.36098	1578.71631	289.68295	314.03513							
3757	31.300	1037.67285	334.10071	210.64262	1577.75671	293.49710	298.52603							
3758	31.308	1039.22485	326.86234	222.14307	1578.09583	298.20792	283.66641							
3759	31.317	1040.68286	320.27234	233.72566	1578.24658	303.41144	268.76294							
3760	31.325	1041.42834	313.87241	245.91362	1579.05920	309.14935	254.82643							
3761	31.333	1044.09448	308.49597	257.85162	1579.26636	315.32623	239.88611							
3762	31.342	1045.68335	302.91013	272.04028	1580.15442	321.61206	225.48997							
3763	31.350	1048.24536	298.31784	284.99051	1580.87134	328.73703	212.55798							
3764	31.358	1049.78662	293.56259	299.27710	1581.81458	335.88416	199.58765							
3765	31.367	1053.50903	290.20490	312.33228	1583.03540	343.40622	187.04512							
3766	31.375	1055.69678	286.85574	326.95956	1584.04578	351.04376	175.32753							
3767	31.383	1058.35413	283.95926	340.73373	1585.35681	358.89087	164.08841							
